<mxfile host="app.diagrams.net" modified="2024-04-20T10:03:22.961Z" agent="Mozilla/5.0 (Macintosh; Intel Mac OS X 10_15_7) AppleWebKit/537.36 (KHTML, like Gecko) Chrome/123.0.0.0 Safari/537.36" etag="CAx_osYNTAHGwXIz3TXJ" version="24.2.7" type="device">
  <diagram name="Pagina-1" id="_NdyMHsjb8DIdISqBQqW">
    <mxGraphModel dx="1193" dy="758" grid="1" gridSize="10" guides="1" tooltips="1" connect="1" arrows="1" fold="1" page="1" pageScale="1" pageWidth="827" pageHeight="1169" math="0" shadow="0">
      <root>
        <mxCell id="0" />
        <mxCell id="1" parent="0" />
        <mxCell id="BmYraWDIbmatM974oFuv-1" value="EzElectronics Server" style="verticalAlign=top;align=center;spacingTop=8;spacingLeft=2;spacingRight=12;shape=cube;size=10;direction=south;fontStyle=0;html=1;whiteSpace=wrap;fontSize=17;" parent="1" vertex="1">
          <mxGeometry x="310" y="280" width="180" height="70" as="geometry" />
        </mxCell>
        <mxCell id="BmYraWDIbmatM974oFuv-4" value="EzElectronics back-end&amp;nbsp;&lt;div&gt;&lt;br&gt;&lt;/div&gt;" style="shape=note;size=20;whiteSpace=wrap;html=1;" parent="1" vertex="1">
          <mxGeometry x="350" y="60" width="90" height="120" as="geometry" />
        </mxCell>
        <mxCell id="BmYraWDIbmatM974oFuv-5" value="&amp;lt;&amp;lt;deploy&amp;gt;&amp;gt;&lt;div&gt;&lt;br&gt;&lt;/div&gt;" style="html=1;verticalAlign=bottom;endArrow=open;dashed=1;endSize=8;curved=0;rounded=0;entryX=-0.032;entryY=0.529;entryDx=0;entryDy=0;entryPerimeter=0;exitX=0.508;exitY=1.039;exitDx=0;exitDy=0;exitPerimeter=0;" parent="1" source="BmYraWDIbmatM974oFuv-4" target="BmYraWDIbmatM974oFuv-1" edge="1">
          <mxGeometry x="0.4285" relative="1" as="geometry">
            <mxPoint x="400" y="200" as="sourcePoint" />
            <mxPoint x="399.47" y="250" as="targetPoint" />
            <mxPoint as="offset" />
          </mxGeometry>
        </mxCell>
        <mxCell id="BmYraWDIbmatM974oFuv-7" value="&lt;div style=&quot;&quot;&gt;&lt;font style=&quot;font-size: 7px;&quot;&gt;sqlite&lt;/font&gt;&lt;/div&gt;" style="shape=note;size=10;whiteSpace=wrap;html=1;fontSize=8;" parent="1" vertex="1">
          <mxGeometry x="360" y="140" width="31" height="30" as="geometry" />
        </mxCell>
        <mxCell id="BmYraWDIbmatM974oFuv-8" value="&lt;div style=&quot;font-size: 7px;&quot;&gt;&lt;font style=&quot;font-size: 7px;&quot;&gt;passport&lt;/font&gt;&lt;/div&gt;" style="shape=note;size=10;whiteSpace=wrap;html=1;fontSize=7;" parent="1" vertex="1">
          <mxGeometry x="398" y="140" width="31" height="30" as="geometry" />
        </mxCell>
        <mxCell id="89rJYb5EtX0BTrZBLkx5-1" value="&lt;div style=&quot;&quot;&gt;&lt;span style=&quot;font-size: 9px; background-color: initial;&quot;&gt;Database&lt;/span&gt;&lt;/div&gt;" style="strokeWidth=2;html=1;shape=mxgraph.flowchart.database;whiteSpace=wrap;align=center;" vertex="1" parent="1">
          <mxGeometry x="650" y="285" width="60" height="60" as="geometry" />
        </mxCell>
        <mxCell id="89rJYb5EtX0BTrZBLkx5-4" value="file system" style="endArrow=none;html=1;rounded=0;entryX=-0.058;entryY=0.587;entryDx=0;entryDy=0;entryPerimeter=0;" edge="1" parent="1" target="89rJYb5EtX0BTrZBLkx5-1">
          <mxGeometry width="50" height="50" relative="1" as="geometry">
            <mxPoint x="490" y="320" as="sourcePoint" />
            <mxPoint x="540" y="270" as="targetPoint" />
            <Array as="points">
              <mxPoint x="560" y="320" />
            </Array>
          </mxGeometry>
        </mxCell>
        <mxCell id="89rJYb5EtX0BTrZBLkx5-5" value="SQLite&lt;div&gt;Database&lt;/div&gt;" style="shape=note;size=20;whiteSpace=wrap;html=1;" vertex="1" parent="1">
          <mxGeometry x="642.5" y="130" width="75" height="80" as="geometry" />
        </mxCell>
        <mxCell id="89rJYb5EtX0BTrZBLkx5-11" value="&amp;lt;&amp;lt;deploy&amp;gt;&amp;gt;" style="endArrow=open;endSize=12;dashed=1;html=1;rounded=0;exitX=0.5;exitY=1;exitDx=0;exitDy=0;exitPerimeter=0;entryX=0.5;entryY=0;entryDx=0;entryDy=0;entryPerimeter=0;" edge="1" parent="1" source="89rJYb5EtX0BTrZBLkx5-5" target="89rJYb5EtX0BTrZBLkx5-1">
          <mxGeometry width="160" relative="1" as="geometry">
            <mxPoint x="640" y="270" as="sourcePoint" />
            <mxPoint x="800" y="270" as="targetPoint" />
          </mxGeometry>
        </mxCell>
      </root>
    </mxGraphModel>
  </diagram>
</mxfile>
